<mxfile host="app.diagrams.net" modified="2020-12-17T11:59:12.755Z" agent="5.0 (Windows NT 10.0; Win64; x64) AppleWebKit/537.36 (KHTML, like Gecko) Chrome/87.0.4280.88 Safari/537.36" etag="gF6GIaKb0uEI6mfvvGoM" version="13.10.0" type="github">
  <diagram id="iDNM3DmbFSRT1b_dNC23" name="Page-1">
    <mxGraphModel dx="898" dy="430" grid="1" gridSize="10" guides="1" tooltips="1" connect="1" arrows="1" fold="1" page="1" pageScale="1" pageWidth="850" pageHeight="1100" math="0" shadow="0">
      <root>
        <mxCell id="0" />
        <mxCell id="1" parent="0" />
        <mxCell id="gJGpaNrBjfHY-2MS3YWX-6" value="" style="group" vertex="1" connectable="0" parent="1">
          <mxGeometry x="90" y="150" width="200" height="70" as="geometry" />
        </mxCell>
        <mxCell id="gJGpaNrBjfHY-2MS3YWX-1" value="" style="shape=image;verticalLabelPosition=bottom;verticalAlign=top;imageAspect=0;aspect=fixed;image=data:image/jpeg,/9j/4AAQSkZJRgABAQEAeAB4AAD/4RDyRXhpZgAATU0AKgAAAAgABAE7AAIAAAANAAAISodpAAQAAAABAAAIWJydAAEAAAAaAAAQ0OocAAcAAAgMAAAAPgAAAAAc6gAAAAgAAAAAAAAAAAAAAAAAAAAAAAAAAAAAAAAAAAAAAAAAAAAAAAAAAAAAAAAAAAAAAAAAAAAAAAAAAAAAAAAAAAAAAAAAAAAAAAAAAAAAAAAAAAAAAAAAAAAAAAAAAAAAAAAAAAAAAAAAAAAAAAAAAAAAAAAAAAAAAAAAAAAAAAAAAAAAAAAAAAAAAAAAAAAAAAAAAAAAAAAAAAAAAAAAAAAAAAAAAAAAAAAAAAAAAAAAAAAAAAAAAAAAAAAAAAAAAAAAAAAAAAAAAAAAAAAAAAAAAAAAAAAAAAAAAAAAAAAAAAAAAAAAAAAAAAAAAAAAAAAAAAAAAAAAAAAAAAAAAAAAAAAAAAAAAAAAAAAAAAAAAAAAAAAAAAAAAAAAAAAAAAAAAAAAAAAAAAAAAAAAAAAAAAAAAAAAAAAAAAAAAAAAAAAAAAAAAAAAAAAAAAAAAAAAAAAAAAAAAAAAAAAAAAAAAAAAAAAAAAAAAAAAAAAAAAAAAAAAAAAAAAAAAAAAAAAAAAAAAAAAAAAAAAAAAAAAAAAAAAAAAAAAAAAAAAAAAAAAAAAAAAAAAAAAAAAAAAAAAAAAAAAAAAAAAAAAAAAAAAAAAAAAAAAAAAAAAAAAAAAAAAAAAAAAAAAAAAAAAAAAAAAAAAAAAAAAAAAAAAAAAAAAAAAAAAAAAAAAAAAAAAAAAAAAAAAAAAAAAAAAAAAAAAAAAAAAAAAAAAAAAAAAAAAAAAAAAAAAAAAAAAAAAAAAAAAAAAAAAAAAAAAAAAAAAAAAAAAAAAAAAAAAAAAAAAAAAAAAAAAAAAAAAAAAAAAAAAAAAAAAAAAAAAAAAAAAAAAAAAAAAAAAAAAAAAAAAAAAAAAAAAAAAAAAAAAAAAAAAAAAAAAAAAAAAAAAAAAAAAAAAAAAAAAAAAAAAAAAAAAAAAAAAAAAAAAAAAAAAAAAAAAAAAAAAAAAAAAAAAAAAAAAAAAAAAAAAAAAAAAAAAAAAAAAAAAAAAAAAAAAAAAAAAAAAAAAAAAAAAAAAAAAAAAAAAAAAAAAAAAAAAAAAAAAAAAAAAAAAAAAAAAAAAAAAAAAAAAAAAAAAAAAAAAAAAAAAAAAAAAAAAAAAAAAAAAAAAAAAAAAAAAAAAAAAAAAAAAAAAAAAAAAAAAAAAAAAAAAAAAAAAAAAAAAAAAAAAAAAAAAAAAAAAAAAAAAAAAAAAAAAAAAAAAAAAAAAAAAAAAAAAAAAAAAAAAAAAAAAAAAAAAAAAAAAAAAAAAAAAAAAAAAAAAAAAAAAAAAAAAAAAAAAAAAAAAAAAAAAAAAAAAAAAAAAAAAAAAAAAAAAAAAAAAAAAAAAAAAAAAAAAAAAAAAAAAAAAAAAAAAAAAAAAAAAAAAAAAAAAAAAAAAAAAAAAAAAAAAAAAAAAAAAAAAAAAAAAAAAAAAAAAAAAAAAAAAAAAAAAAAAAAAAAAAAAAAAAAAAAAAAAAAAAAAAAAAAAAAAAAAAAAAAAAAAAAAAAAAAAAAAAAAAAAAAAAAAAAAAAAAAAAAAAAAAAAAAAAAAAAAAAAAAAAAAAAAAAAAAAAAAAAAAAAAAAAAAAAAAAAAAAAAAAAAAAAAAAAAAAAAAAAAAAAAAAAAAAAAAAAAAAAAAAAAAAAAAAAAAAAAAAAAAAAAAAAAAAAAAAAAAAAAAAAAAAAAAAAAAAAAAAAAAAAAAAAAAAAAAAAAAAAAAAAAAAAAAAAAAAAAAAAAAAAAAAAAAAAAAAAAAAAAAAAAAAAAAAAAAAAAAAAAAAAAAAAAAAAAAAAAAAAAAAAAAAAAAAAAAAAAAAAAAAAAAAAAAAAAAAAAAAAAAAAAAAAAAAAAAAAAAAAAAAAAAAAAAAAAAAAAAAAAAAAAAAAAAAAAAAAAAAAAAAAAAAAAAAAAAAAAAAAAAAAAAAAAAAAAAAAAAAAAAAAAAAAAAAAAAAAAAAAAAAAAAAAAAAAAAAAAAAAAAAAAAAAAAAAAAAAAAAAAAAAAAAAAAAAAAAAAAAAAAAAAAAAAAAAAAAAAAAAAAAAAAAAAAAAAAAAAAAAAAAAAAAAAAAAAAAAAAAAAAAAAAAAAAAAAAAAAAAAAAAAAAAAAAAAAAAAAAAAAAAAAAAAAAAAAAAAAAAAAAAAAAAAAAAAAAAAAAAAAAAAAAAAAAAAAAAAAAAAAAAAAAAAAAAAAAAAAAAAAAAAAAAAAAAAAAAAAAAAAAAAAAAAAAAAAAAAAAAAAAAAAAAAAAAAAAAAAAAAAAAAAAAAAAAAAAAAAAAAAAAAAAAAAAAAAAAAAAAAAAAAAAAAAAAAAAAAAAAAAAAAAAAAAAAAAAAAAAAAAAAAAAAAAAAAAAAAAAAAAAAAAAAAAAAAAAAAAAAAAAAAAAAAAAAAAAAAAAAAAAAAAAAAAAAAAAAAAAAAAAAAAAAAAAAAAAAAAAAAAAAAAAAAAAAAAAAAAAAAAAAAAAAAAAAAAAAAAAAAAAAAAAAAAAAAAAAAAAAAAAAAAAAAAAAAAAAAAAAAAAAAAAAAAAAAAAAAAAAAAAAAAAAAAAAAAAAAAAAAAAAAAAAAAAAAAAAAAAAAAAAAAAAAAAAAAAAAAAAAAAAAAAAAAAAAAAAAAAAAAAAAAAAAAAAAAAAAAAAAAAAAAAAAAAAAAAAAAAAAAAAAAAAAAAAAAAAAAAAAAAAAAAAAAAAAAAAAAAAAAAAAAAAAAAAAAAAAAAAAAAAAAAAAAAAAAAAAAAAAAAAAAAAAAAAAAAEJpc29pLCBSYWppYgAAAAWQAwACAAAAFAAAEKaQBAACAAAAFAAAELqSkQACAAAAAzI4AACSkgACAAAAAzI4AADqHAAHAAAIDAAACJoAAAAAHOoAAAAIAAAAAAAAAAAAAAAAAAAAAAAAAAAAAAAAAAAAAAAAAAAAAAAAAAAAAAAAAAAAAAAAAAAAAAAAAAAAAAAAAAAAAAAAAAAAAAAAAAAAAAAAAAAAAAAAAAAAAAAAAAAAAAAAAAAAAAAAAAAAAAAAAAAAAAAAAAAAAAAAAAAAAAAAAAAAAAAAAAAAAAAAAAAAAAAAAAAAAAAAAAAAAAAAAAAAAAAAAAAAAAAAAAAAAAAAAAAAAAAAAAAAAAAAAAAAAAAAAAAAAAAAAAAAAAAAAAAAAAAAAAAAAAAAAAAAAAAAAAAAAAAAAAAAAAAAAAAAAAAAAAAAAAAAAAAAAAAAAAAAAAAAAAAAAAAAAAAAAAAAAAAAAAAAAAAAAAAAAAAAAAAAAAAAAAAAAAAAAAAAAAAAAAAAAAAAAAAAAAAAAAAAAAAAAAAAAAAAAAAAAAAAAAAAAAAAAAAAAAAAAAAAAAAAAAAAAAAAAAAAAAAAAAAAAAAAAAAAAAAAAAAAAAAAAAAAAAAAAAAAAAAAAAAAAAAAAAAAAAAAAAAAAAAAAAAAAAAAAAAAAAAAAAAAAAAAAAAAAAAAAAAAAAAAAAAAAAAAAAAAAAAAAAAAAAAAAAAAAAAAAAAAAAAAAAAAAAAAAAAAAAAAAAAAAAAAAAAAAAAAAAAAAAAAAAAAAAAAAAAAAAAAAAAAAAAAAAAAAAAAAAAAAAAAAAAAAAAAAAAAAAAAAAAAAAAAAAAAAAAAAAAAAAAAAAAAAAAAAAAAAAAAAAAAAAAAAAAAAAAAAAAAAAAAAAAAAAAAAAAAAAAAAAAAAAAAAAAAAAAAAAAAAAAAAAAAAAAAAAAAAAAAAAAAAAAAAAAAAAAAAAAAAAAAAAAAAAAAAAAAAAAAAAAAAAAAAAAAAAAAAAAAAAAAAAAAAAAAAAAAAAAAAAAAAAAAAAAAAAAAAAAAAAAAAAAAAAAAAAAAAAAAAAAAAAAAAAAAAAAAAAAAAAAAAAAAAAAAAAAAAAAAAAAAAAAAAAAAAAAAAAAAAAAAAAAAAAAAAAAAAAAAAAAAAAAAAAAAAAAAAAAAAAAAAAAAAAAAAAAAAAAAAAAAAAAAAAAAAAAAAAAAAAAAAAAAAAAAAAAAAAAAAAAAAAAAAAAAAAAAAAAAAAAAAAAAAAAAAAAAAAAAAAAAAAAAAAAAAAAAAAAAAAAAAAAAAAAAAAAAAAAAAAAAAAAAAAAAAAAAAAAAAAAAAAAAAAAAAAAAAAAAAAAAAAAAAAAAAAAAAAAAAAAAAAAAAAAAAAAAAAAAAAAAAAAAAAAAAAAAAAAAAAAAAAAAAAAAAAAAAAAAAAAAAAAAAAAAAAAAAAAAAAAAAAAAAAAAAAAAAAAAAAAAAAAAAAAAAAAAAAAAAAAAAAAAAAAAAAAAAAAAAAAAAAAAAAAAAAAAAAAAAAAAAAAAAAAAAAAAAAAAAAAAAAAAAAAAAAAAAAAAAAAAAAAAAAAAAAAAAAAAAAAAAAAAAAAAAAAAAAAAAAAAAAAAAAAAAAAAAAAAAAAAAAAAAAAAAAAAAAAAAAAAAAAAAAAAAAAAAAAAAAAAAAAAAAAAAAAAAAAAAAAAAAAAAAAAAAAAAAAAAAAAAAAAAAAAAAAAAAAAAAAAAAAAAAAAAAAAAAAAAAAAAAAAAAAAAAAAAAAAAAAAAAAAAAAAAAAAAAAAAAAAAAAAAAAAAAAAAAAAAAAAAAAAAAAAAAAAAAAAAAAAAAAAAAAAAAAAAAAAAAAAAAAAAAAAAAAAAAAAAAAAAAAAAAAAAAAAAAAAAAAAAAAAAAAAAAAAAAAAAAAAAAAAAAAAAAAAAAAAAAAAAAAAAAAAAAAAAAAAAAAAAAAAAAAAAAAAAAAAAAAAAAAAAAAAAAAAAAAAAAAAAAAAAAAAAAAAAAAAAAAAAAAAAAAAAAAAAAAAAAAAAAAAAAAAAAAAAAAAAAAAAAAAAAAAAAAAAAAAAAAAAAAAAAAAAAAAAAAAAAAAAAAAAAAAAAAAAAAAAAAAAAAAAAAAAAAAAAAAAAAAAAAAAAAAAAAAAAAAAAAAAAAAAAAAAAAAAAAAAAAAAAAAAAAAAAAAAAAAAAAAAAAAAAAAAAAAAAAAAAAAAAAAAAAAAAAAAAAAAAAAAAAAAAAAAAAAAAAAAAAAAAAAAAAAAAAAAAAAAAAAAAAAAAAAAAAAAAAAAAAAAAAAAAAAAAAAAAAAAAAAAAAAAAAAAAAAAAAAAAAAAAAAAAAAAAAAAAAAAAAAAAAAAAAAAAAAAAAAAAAAAAAAAAAAAAAAAAAAAAAAAAAAAAAAAAAAAAAAAAAAAAAAAAAAAAAAAAAAAAAAAAAAAAAAAAAAAAAAAAAAAAAAAAAAAAAAAAAAAAAAAAAAAAAAAAAAAAAAAAAAAAAAAAAAAAAAAAAAAAAAAAAAAAAAAAAAAAAAAAAAAAAAAAAAAAAAAAAAAAAAAAAAAAAAAAAAAAAAAAAAAAAAAAAAAAAAAAAAAAAAAAAAAAAAAAAAAAAAAAAAAAAAAAAAAAAAAAAAAAAAAAAAAAAAAAAAAAAAAAAAAAAAAAAAAAAAAAAAAAAAAAAAAAAAAAAAAAAAAAAAAAAAAAAAAAAAAAAAAAAAAAAAAAAAAAAAAAAAAAAAAAAAAAAAAAAAAAAAAAAAAAAAAAAAAAAAAAAAAAAAAAAAAAAAAAAAAAAAAAAAAAAAAAAAAAAAAAAAAAAAAAAAAAAAAAAAAAAAAAAAAAAAAAAAAAAyMDIwOjEyOjE3IDE2OjQ4OjA3ADIwMjA6MTI6MTcgMTY6NDg6MDcAAABCAGkAcwBvAGkALAAgAFIAYQBqAGkAYgAAAP/hCx9odHRwOi8vbnMuYWRvYmUuY29tL3hhcC8xLjAvADw/eHBhY2tldCBiZWdpbj0n77u/JyBpZD0nVzVNME1wQ2VoaUh6cmVTek5UY3prYzlkJz8+DQo8eDp4bXBtZXRhIHhtbG5zOng9ImFkb2JlOm5zOm1ldGEvIj48cmRmOlJERiB4bWxuczpyZGY9Imh0dHA6Ly93d3cudzMub3JnLzE5OTkvMDIvMjItcmRmLXN5bnRheC1ucyMiPjxyZGY6RGVzY3JpcHRpb24gcmRmOmFib3V0PSJ1dWlkOmZhZjViZGQ1LWJhM2QtMTFkYS1hZDMxLWQzM2Q3NTE4MmYxYiIgeG1sbnM6ZGM9Imh0dHA6Ly9wdXJsLm9yZy9kYy9lbGVtZW50cy8xLjEvIi8+PHJkZjpEZXNjcmlwdGlvbiByZGY6YWJvdXQ9InV1aWQ6ZmFmNWJkZDUtYmEzZC0xMWRhLWFkMzEtZDMzZDc1MTgyZjFiIiB4bWxuczp4bXA9Imh0dHA6Ly9ucy5hZG9iZS5jb20veGFwLzEuMC8iPjx4bXA6Q3JlYXRlRGF0ZT4yMDIwLTEyLTE3VDE2OjQ4OjA3LjI3OTwveG1wOkNyZWF0ZURhdGU+PC9yZGY6RGVzY3JpcHRpb24+PHJkZjpEZXNjcmlwdGlvbiByZGY6YWJvdXQ9InV1aWQ6ZmFmNWJkZDUtYmEzZC0xMWRhLWFkMzEtZDMzZDc1MTgyZjFiIiB4bWxuczpkYz0iaHR0cDovL3B1cmwub3JnL2RjL2VsZW1lbnRzLzEuMS8iPjxkYzpjcmVhdG9yPjxyZGY6U2VxIHhtbG5zOnJkZj0iaHR0cDovL3d3dy53My5vcmcvMTk5OS8wMi8yMi1yZGYtc3ludGF4LW5zIyI+PHJkZjpsaT5CaXNvaSwgUmFqaWI8L3JkZjpsaT48L3JkZjpTZXE+DQoJCQk8L2RjOmNyZWF0b3I+PC9yZGY6RGVzY3JpcHRpb24+PC9yZGY6UkRGPjwveDp4bXBtZXRhPg0KICAgICAgICAgICAgICAgICAgICAgICAgICAgICAgICAgICAgICAgICAgICAgICAgICAgICAgICAgICAgICAgICAgICAgICAgICAgICAgICAgICAgICAgICAgICAgICAgICAgIAogICAgICAgICAgICAgICAgICAgICAgICAgICAgICAgICAgICAgICAgICAgICAgICAgICAgICAgICAgICAgICAgICAgICAgICAgICAgICAgICAgICAgICAgICAgICAgICAgICAgCiAgICAgICAgICAgICAgICAgICAgICAgICAgICAgICAgICAgICAgICAgICAgICAgICAgICAgICAgICAgICAgICAgICAgICAgICAgICAgICAgICAgICAgICAgICAgICAgICAgICAKICAgICAgICAgICAgICAgICAgICAgICAgICAgICAgICAgICAgICAgICAgICAgICAgICAgICAgICAgICAgICAgICAgICAgICAgICAgICAgICAgICAgICAgICAgICAgICAgICAgIAogICAgICAgICAgICAgICAgICAgICAgICAgICAgICAgICAgICAgICAgICAgICAgICAgICAgICAgICAgICAgICAgICAgICAgICAgICAgICAgICAgICAgICAgICAgICAgICAgICAgCiAgICAgICAgICAgICAgICAgICAgICAgICAgICAgICAgICAgICAgICAgICAgICAgICAgICAgICAgICAgICAgICAgICAgICAgICAgICAgICAgICAgICAgICAgICAgICAgICAgICAKICAgICAgICAgICAgICAgICAgICAgICAgICAgICAgICAgICAgICAgICAgICAgICAgICAgICAgICAgICAgICAgICAgICAgICAgICAgICAgICAgICAgICAgICAgICAgICAgICAgIAogICAgICAgICAgICAgICAgICAgICAgICAgICAgICAgICAgICAgICAgICAgICAgICAgICAgICAgICAgICAgICAgICAgICAgICAgICAgICAgICAgICAgICAgICAgICAgICAgICAgCiAgICAgICAgICAgICAgICAgICAgICAgICAgICAgICAgICAgICAgICAgICAgICAgICAgICAgICAgICAgICAgICAgICAgICAgICAgICAgICAgICAgICAgICAgICAgICAgICAgICAKICAgICAgICAgICAgICAgICAgICAgICAgICAgICAgICAgICAgICAgICAgICAgICAgICAgICAgICAgICAgICAgICAgICAgICAgICAgICAgICAgICAgICAgICAgICAgICAgICAgIAogICAgICAgICAgICAgICAgICAgICAgICAgICAgICAgICAgICAgICAgICAgICAgICAgICAgICAgICAgICAgICAgICAgICAgICAgICAgICAgICAgICAgICAgICAgICAgICAgICAgCiAgICAgICAgICAgICAgICAgICAgICAgICAgICAgICAgICAgICAgICAgICAgICAgICAgICAgICAgICAgICAgICAgICAgICAgICAgICAgICAgICAgICAgICAgICAgICAgICAgICAKICAgICAgICAgICAgICAgICAgICAgICAgICAgICAgICAgICAgICAgICAgICAgICAgICAgICAgICAgICAgICAgICAgICAgICAgICAgICAgICAgICAgICAgICAgICAgICAgICAgIAogICAgICAgICAgICAgICAgICAgICAgICAgICAgICAgICAgICAgICAgICAgICAgICAgICAgICAgICAgICAgICAgICAgICAgICAgICAgICAgICAgICAgICAgICAgICAgICAgICAgCiAgICAgICAgICAgICAgICAgICAgICAgICAgICAgICAgICAgICAgICAgICAgICAgICAgICAgICAgICAgICAgICAgICAgICAgICAgICAgICAgICAgICAgICAgICAgICAgICAgICAKICAgICAgICAgICAgICAgICAgICAgICAgICAgICAgICAgICAgICAgICAgICAgICAgICAgICAgICAgICAgICAgICAgICAgICAgICAgICAgICAgICAgICAgICAgICAgICAgICAgIAogICAgICAgICAgICAgICAgICAgICAgICAgICAgICAgICAgICAgICAgICAgICAgICAgICAgICAgICAgICAgICAgICAgICAgICAgICAgICAgICAgICAgICAgICAgICAgICAgICAgCiAgICAgICAgICAgICAgICAgICAgICAgICAgICAgICAgICAgICAgICAgICAgICAgICAgICAgICAgICAgICAgICAgICAgICAgICAgICAgICAgICAgICAgICAgICAgICAgICAgICAKICAgICAgICAgICAgICAgICAgICAgICAgICAgICAgICAgICAgICAgICAgICAgICAgICAgICAgICAgICAgICAgICAgICAgICAgICAgICAgICAgICAgICAgICAgICAgICAgICAgIAogICAgICAgICAgICAgICAgICAgICAgICAgICAgICAgICAgICAgICAgICAgICAgICAgICAgICAgICAgICAgICAgICAgICAgICAgICAgICAgICAgICAgICAgICAgICAgICAgICAgCiAgICAgICAgICAgICAgICAgICAgICAgICAgICA8P3hwYWNrZXQgZW5kPSd3Jz8+/9sAQwAHBQUGBQQHBgUGCAcHCAoRCwoJCQoVDxAMERgVGhkYFRgXGx4nIRsdJR0XGCIuIiUoKSssKxogLzMvKjInKisq/9sAQwEHCAgKCQoUCwsUKhwYHCoqKioqKioqKioqKioqKioqKioqKioqKioqKioqKioqKioqKioqKioqKioqKioqKioq/8AAEQgBWwDqAwEiAAIRAQMRAf/EAB8AAAEFAQEBAQEBAAAAAAAAAAABAgMEBQYHCAkKC//EALUQAAIBAwMCBAMFBQQEAAABfQECAwAEEQUSITFBBhNRYQcicRQygZGhCCNCscEVUtHwJDNicoIJChYXGBkaJSYnKCkqNDU2Nzg5OkNERUZHSElKU1RVVldYWVpjZGVmZ2hpanN0dXZ3eHl6g4SFhoeIiYqSk5SVlpeYmZqio6Slpqeoqaqys7S1tre4ubrCw8TFxsfIycrS09TV1tfY2drh4uPk5ebn6Onq8fLz9PX29/j5+v/EAB8BAAMBAQEBAQEBAQEAAAAAAAABAgMEBQYHCAkKC//EALURAAIBAgQEAwQHBQQEAAECdwABAgMRBAUhMQYSQVEHYXETIjKBCBRCkaGxwQkjM1LwFWJy0QoWJDThJfEXGBkaJicoKSo1Njc4OTpDREVGR0hJSlNUVVZXWFlaY2RlZmdoaWpzdHV2d3h5eoKDhIWGh4iJipKTlJWWl5iZmqKjpKWmp6ipqrKztLW2t7i5usLDxMXGx8jJytLT1NXW19jZ2uLj5OXm5+jp6vLz9PX29/j5+v/aAAwDAQACEQMRAD8A+kaKKKACiiigAooooAKKKKACiiigAooooAKKKM0AFFJuFGaAFooooAKKKKACiiigAooooAKKKKACiiigAooooAKKKKACiiigAooooAKKKKACiijNABRnFJuFcv4l8d6VoG+IP9rvB0gjP3T/ALR6D+dXTpzqS5YK7Ma1enQhz1HZHSyzxQRNJNIsaKMszHAArz3xL8Ube232+gKLiXobhh8i/Qd64LxB4u1TxFKftk22AHKwR8IP8T9axK93D5ZGPvVdX2PkMdn853hhtF36/wDAO28NeINUnu7m8lvJXnLDLM2R9Meleg6X4uim2x6gBC/TzB90/wCFeWeFPuXH1FdDXVXwtKro0edhMwxGHfNGV+6ep6ukiSIGRgykZBBzmnZrzTTtXvNMcfZ5MpnmNuVP4V1+l+JrS/xHKfs8x/hY8H6GvDr4KpS1WqPrsHm1DEe7L3Zdn+jNyikyKWuE9gKKKKACiiigAooooAKKKKACiiigAooooAKKKKACiiigAopCcVHcXUFrA01xKsUaDLM5wAKNxNpK7Jc1mazr2naFbGfUrlYh/CnVn+g6muG8TfFOOMtbeHlEj9DcuPlH+6O/1NeaXt9c6jdNcX07zyv1Zzk162Hy2c/eqaL8T5zHZ7So3hQ96Xfp/wAE67xL8StR1bfb6XusbQ8FlP7xx7nsPYfnXFE5OTye5pKK96lRhSjywVj43EYqtiZ89WV2FFFFanMdJ4UPFx9RXRVznhT/AJePwro6yludMPhCiiipLNfS/El5p21HP2iAfwOeR9D/APrrsdN1uz1NB9nkxJjmJuGH+Neb0qsyOGRirA5BBwRXDXwVOrqtGevg82r4b3Ze9Hs/0Z6vupa4jS/Fs9viPUAZ4+m8feH+NddZ6hbX0IktZVdfQdRXh1sNUov3lofXYXH0MUvcevZ7lmik3A0tc53BRRRQAUUUUAFFFFABRRRQAUUUhOKAFzSFgBzWTrniTTdBtzJfzqrY+WNeWb8K8o8SfETUdZLwWRaztDxtU/Mw9zXZh8HVr7Ky7nmY3M8PhFaTvLsv60O/8S/EHTND3RW7C8uwP9Wh4U+5ryfXfE+p+IJi1/OfLz8sKcIv4d6yCcnJ5NJX0GHwdKhqtX3PicbmlfFuzdo9l+vcWkoortPJCiiigAooooA6Lwp965+grpK5vwp9+4+grpKyludMPhCiiipLCiiigAqW3uZrSYS28jRuO6moqKTSasxpuLujrdL8Xq2ItSXaenmqOPxFdRDPFPGHhcOp6EHNeVVbsdTutOk3WspUd1PIP4V5dfL4y1p6M+gwed1Kfu1/eXfr/wAE9NzS1z2l+Kra7xHd/uJTxyflP41vq4ZQVOR6ivGqUp03aasfVUMRSxEeam7jqKKKzOgKKKKACiiigCK4uIrWB5rhwkUalnc9AB1NeZ+JvimTvtvDyY7G5kH/AKCK7rxWufCWq/8AXnL/AOgmvnivYy7DU6t5zV7HzGeY+vh3GlSdrrfqS3V3Pe3DT3crzSsclnOSahoor6FJLY+Jbbd2FFFFBIUUUUAFFFFABRRRQB0PhT/W3H0FdLXM+FT++uP90V01ZS3OmHwhRRRUlhRRRQAUUUUAFFFAySABknoBQAlbGi6tqVvMsNoGuFJ/1R5x+Pap9L8LXN3tku8wRen8R/wrsLLTbbT4fLtYwg7nufxry8Vi6KThbmZ7+XZbiZSVW/Ivxfy/zJ4Xd4lMibGIyVznFSUm2lrwT7NaIKKKKBhRRRQBleJxnwpqv/XpL/6Ca+da+jPEYz4Y1Mf9Okv/AKAa+c6+gyn4Jep8VxJ/Fp+gUUUV7J8qFFFFAwooooEFFFFABRRRQBv+Ff8Aj4uP9wfzrp65fwr/AMfU/wDuD+ddRWUtzph8IUUUVJYUUUUAFFTWtrPeTCK2jaRz2A6fX0rq9K8JRQ7ZdRIlfr5Y+6P8a562Jp0V7z1O3C4GvinamtO/Q57TdFvNTceSm2PvI3T/AOvXZaX4dtNOAfb5s3d2HT6elaiRrGgVAFUdAB0p9eFXxlStpsj7DB5VQw3vP3pd3+gm2looriPWCiiigAooooAKKKKAM7xCM+G9SHray/8AoJr5x7Cvo/Xhnw/qA/6dpP8A0E184dh9K9/KfgkfF8SfxKfowooor2j5QKKKKACiiigYUUUUCCiiigDe8Lf8fc/+4P511Fct4W/4/Zv9z+tdTWUtzph8IUUVpaZoV5qbBo18uHvK44/D1rKdSMFzSdkb0qVSrLkpq7M0AswUDJJwAOc10WleE57nbLfkwRHkIPvn/Cuj0vQbPTEDRpvlxzK4yfw9K09teNiMwcvdpaeZ9Tg8jjG08Rq+3T5le0sLexhEdrGsa+w6/WrGKWivKbbd2fSRjGC5YqyCiiikUFFFFABRRRQAUUUUAFFFFAFHWxnQr7/r3k/9BNfN3YfSvpLVxnRrz/rg/wD6Ca+ba9/Kfhn8j4ziT46fo/0CiiivaPkwooooAKKKKACiiigAopaKBpNuyNvwt/x/S/7n9a7Gzsri/mEdrE0jd8DgfU1wOja9p2hanHNqyTPayHY5h6r749K938O6nouqaYk2gTwywEf8szyPqOua8fE5hCDtT1f4H0+AyWrVSlW91fj/AMAqaV4TgtiJb4ieX+5/CP8AGuiVAqgLwB0ApaUV4dSrOq7zZ9fh8NSw8eWkrBRRRWR0BRRRQAUUUUAFFFFABRRRQAUUUUAFFFFAFTVBu0q6HrC//oJr5r7D6V9LaiM6bcj/AKZN/KvmnsPpXvZTtP5HxvEvxU/n+gUUUV7Z8kFFFFABRRRQAUUcDqcU0t6VyYjF0qC9569j08FlmIxjvFWj3e3/AARxYDrTSSetJRXz2IxtWvo9F2Pt8FlWHwiuleXd/p2MrX/+PFP9+s3SNb1LQbxbrSLuS2lHdDw31HetPX/+PFf98VztcR6p7t4P+OVrdGO08VRC2lPAuox8jfUdq9btby3vbZJ7OZJ4nGVeNsg18XVv+GfGmt+E7kPpN2wiz89u5zG/4dqAPrmivOfB/wAYtF8Q+XbamRpt83G2Q/u3Ps3b6GvRFdWUMpBBGQR3oAdRRRQAUUUUAFFFFABRRRQAUUUUAFFFFAEF6M2M4/6Zt/Kvmevpm7GbSUf7B/lXzNXvZTtP5fqfHcS/FS+f6BRRRXtnyIUUtISB71nUqwpR5pux0UMPVxE+SlG7Fppb0ppJPWivBxGZTn7tLRd+p9jgchp0rTxHvPt0/wCCHXrRRRXkttu7PpUklZBRRRSGZevf8eC/74rna6PXf+Qf/wADFc5QAUUUUAFdr4R+KOveFWSHzTfWIPNvOScD/ZPUVxVFAH1X4S+I+heLY1S0uBb3mPmtZjh8+3978K6zNfFUcjxSLJE7I6nIZTgivTfB/wAatV0fy7XXw2pWg4EhOJUH1/i/GgD6JorG8P8AivR/E9mLjRrxJxj5oycOn1XqK2M0ALRRRQAUUUUAFFFFABRRRQBHcc28n+4f5V8yngn619NTcwuP9k18zP8Afb6mvcylpKd/L9T5DiSLk6SXn+glISB1pC/pTevWtsRmUYe7S1ffoc2ByGpUtPEe6u3X/gClj2pKKK8GpVnVlzTd2fY0MPSw8OSlGyCiiiszcKKKKACiiigDN13/AJB3/AxXN10muf8AINP+8K5ugAooooAKKKKACiiigCzp+o3mlXiXWnXMttOhyskbEEV7D4P+OhHl2fi+HPQC9hX9WX+o/KvFaKAPs3T9UstWs0u9NuYrqBxlZImyDVuvj3w/4n1jwxe/adFvXt2J+ZOqSezKeD/OvcPB3xt0vWDHaeIkXS7w4AlzmBz9eq/j+dAHqVFMjlWWNXjZXRhkMpyCPrT6ACiiigAooooAa43KR6ivFvE3w21TSmkudOzf2uSflH7xB7r3/Cva8UYqlKSTSejIcIuSk1qtj5dIKkqwII6gjpRXvfiTwJpHiENI8X2a7PSeIYJP+0OhrybxD4I1bw8zPNF59qDxPEMj8fSpLOdooooAKKKKACiiigAooooAztc/5Bp/3hXNV0ut/wDINb/eFc1QAUUUUAFFFFABRRRQAUUVu6B4Q1TxDIDbReVb5+aeQYUfT1rOrVhRjz1HZAYaqWYKoJY8AAZzXa+HPhte6lsuNXLWVsedmP3jj6fw/j+Vd54d8F6X4fVZEj+0XXeeUcj6Dt/Ouir5TG57KV4YbTz/AMkB0HgfTrbSvDq2dihSGKQhQWLenrXSVi+F/wDkGv8A9dT/ACFbVfQZdJzwkJSd20AUUUV3gFFFFABRRRQAYprorqVdQykYIIyDTqKAOE8S/DHTtU33GlkWVyedoHyMfp2/CvK9a8O6noNwY9StmjGflkAyrfQ19H4qC7sra+t2gvIUmiYYKuMigD5kor1PxJ8KVffceHpNjdTbSHg/Q15pfWF3pty1vf28kEqnlXGM/T1oAr0UUUAFFFFAGfrX/IMf6iuZrpta/wCQY/1FczQAUUUUAFFFOSN5ZFjiUu7HCqoyTQA2rem6Xe6tdC30+3eaQ9lHA+prsfDnw0urzZca2xtYTyIR99h7+lemadpVlpNqLfT7dIYx12jk/U968DG51Soe5S96X4Acd4c+GlrZbLjW2F1OORCPuL9fWu6SNIowkahFUYCqMAD6U6lr4/EYqtiZc1WVwCiiiuYDqfC//IOk/wCup/kK26w/C3/HhL/11/oK3K/R8r/3On6AFFFFeiAUUUUAFFFFABRRRQAUUUUAGKztW0PT9btjBqVsky9mI+Zfoe1aNFAHjniT4W3tgHuNEY3cA58o/wCsX6etcFJG8MjRyoyOpwysMEV9QYrA8QeDtJ8RRn7XAEnx8s8fDj/GgD58orq/Efw+1bQi0sSG8tBz5kY5Ue61ylAFDWf+QXJ9RXMV1Gs/8guT8K5egAoq9pWjX+tXIg023aVv4m6Kv1PavT/Dnw3stN2XGrYvLkc7Mfu0P07/AI15+MzChhF7717LcDhPD3grVNfZZEj+z2veeQcH6DvXqmgeENM8Pxg20Xm3GPmnkGWJ9vStxVVFCqAABgADgU6vjcbmtfFe7tHsv1AKKKK8kAooooAKKKKAOn8Lf8eU3/XX+grdrC8Lf8ek/wD10/oK3a/Rsq/3Kn6fqAUUUV6QBRRRQAUUUUAFFFFABRRRQAUUUUAFGKKKAEKhhgjP1rj/ABJ8OdL1zdNbD7Fdn+OMfKx91rsCaoXurQ2uVX95J6DoPxrmxOLoYWn7SvLlQ1FydkfPnjHwdrWiW8kNxaPKrkLHJCpZX/w/GmeHPhjNPsuNfYwx9RbIfmP1Pb6V7LqF7NeIxlb5eyjoKy6+Pr8RyxKawq5V3e7/AMipwcHZlexsLXTbZbexgSCJeioMVYpaK8Fycnd7kBRRRSAKKKKACiiigAooooA6bwqf9Fn/AOug/lW9WB4V/wCPe4/3x/Kt+v0TKf8Acof11YBRRRXqAFFFFABRRRQAUUUUAFFFFABRRTJJFiUs7BVHc0pSUVdgOzUFzexWi7pnA9AOp/Csu91zqloP+Bn+lY8kjyuWkYsx6kmvi804qo0L08J78u/Rf5/l5nTCg3rIv3msTXOVi/dR+x5NZ1JRX51i8bXxlT2leTb/AK27HXGKirIZN/qzVWrU3+qNVa9HL/4T9TjxHxISilor0TnEpaSigBaKKKACiiigAooooA6Twr/qLn/fH8q6Cue8K/6q5/3l/lXQ1+h5R/uUPn+bAKKKK9UAooooAKKKKACiikNAC0hOKr3V/DaLmV+eyjqawbzVprrKr+7j9AeTXhZlnmEy9Wk7z7L9exrCnKZq3msRW2Vj/eP6DoKwrm9mu3zM+R2UdBUFJX5lmWd4vMHabtHstvn3OyFOMAooorwzUKKKKAGy/wCrb6VUq1L/AKtvpVWvcy7+G/U4sR8SCiiivSOYKKKKAExRS0UAFFJiloAKKKKAOj8K/cuv95f610Nc74U+7dfVf610VfoeT/7jD5/mwCiiivVAKKKKACikNZ1/qy2pMaAtJ7jgVyYvGUMHSdWvKyKjFydkXpZkhUtIwVR61i3muE5S1GB/fNZlxdzXT7pnJ9B2FQ1+cZpxTXxF6eF9yPfq/wDI64UEtZDndnYs7FiepNNoor41tyd2dIUUUVIBRRRQAUUUUANl/wBWfpVOrkn+rP0qnXt5d/DfqcWI+JC0UUV6ZzBRRRQAUUUUAFJilooASiloAJOAMnoAO9AHQ+FP+Xr6r/WujrD8OWU9rHK86bBJtIB68Zrcr9EymEoYOEZKz1/NgFFFFeoAUUUUAFQXNpDdJtlQH0PcVPRWdSnCrFwqK6fRjTa1Rzl5ossOWgPmJ6dxWYQVOGBB967bFU7zTYLsHeu1/wC8OtfDZnwlCd6mCdn/ACvb5PodMK72kcpRV270ue0JON8f94dqpV+f4nC1sLP2daLi/M6lJSV0FFFFcxQUUUUAFFFFADZP9W30qnVyT/Vt9Kp17eXfw36nFiPiQtFFFemcwUUUUAFFFFABSVNb2013L5duhdu+O3+FdFp/h2KHEl4fNfrt/hH+Nd+EwFfFv3Fp36AYtjpNzfkFF2R93bp+HrXTWGj21gAVXfJjl2rQVQqgKAAOgFLX2WCymhhfefvS7v8AQAxRRRXrgFFFFABRRRQAUUUUAFFFFACECs280eG4y0f7p/YcGtOiuTFYOhjIezrxUl/W3YqMnF3RyFzZTWjYlQ47MOQar12rosilXUMp6gisi80NXy1qdp/uHofpX57mfCdWlepg3zLs9/8Ag/n6nXCunpIwaKkmgkgfZKhUj1FR18TOEqcnGSs0dF7hRRRUDGyfcb6VTFXH+6fpVOvby74JepxYjdC0UUV6ZzBRRV+w0e5vyGA8uLu7f0rWlRqVpclNXYFAAswVQSx4AHetvT/DkkuJL0mNOuwfeP8AhW1YaXbWCgxruk7yN1P+FX6+swWRQhaeI1fbp8+4ENvbRWsQjgjVFHYVNRRX0sYqK5YqyAKKKKoAooooAKKKKACiiigAooooAKKKKACiiigAooooAhnt4rhSsyBh79qxbzQ3TL2p3r/dPUV0FFeTmGU4TMI/vo691v8A16mkakobHFMrKxVhtI6g02uturGG6H71ef7w61hXmkTW2WT94nqOor83zPhvFYK86fvw7rf5o64Voy0ZnP8AcP0qlV1/usPaqiI0jBUUsx6ACuLLU3GS8zLEbobU9rZz3kmy3jLnuccD8a19P8OPJiS+O1euwdfxro4IIreIJCgRR2Ar7TBZJVrWnW91fj/wDlMnT/D0NtiS6xNJ2H8I/wAa2QAAMdO1LRX12Hw1LDR5aSsAUUUV0gFFFFABRRRQAUUUUAFFFFABRRRQAUUUUAFFFFABRRRQAUUUUAFFFFABRiiigDPvNJgusnHluf4lFPstNt7FP3KfN3c9TV2iuOGBw1Oq60IJSfUbbe4UUUV2CCiiigAooooAKKKKACiiigAooooAKKKKAP/Z" vertex="1" parent="gJGpaNrBjfHY-2MS3YWX-6">
          <mxGeometry width="47.2" height="70" as="geometry" />
        </mxCell>
        <mxCell id="gJGpaNrBjfHY-2MS3YWX-2" value="&lt;font style=&quot;font-size: 66px;&quot;&gt;finz&lt;/font&gt;" style="text;html=1;strokeColor=none;fillColor=none;align=center;verticalAlign=middle;whiteSpace=wrap;rounded=0;fontSize=66;fontStyle=0;fontFamily=Tahoma;fontColor=#3399FF;glass=0;shadow=1;" vertex="1" parent="gJGpaNrBjfHY-2MS3YWX-6">
          <mxGeometry x="44.15584415584415" y="0.3944315545243659" width="124.67532467532466" height="63.17865429234339" as="geometry" />
        </mxCell>
        <mxCell id="gJGpaNrBjfHY-2MS3YWX-3" value="" style="ellipse;whiteSpace=wrap;html=1;aspect=fixed;fontFamily=Tahoma;fontSize=58;gradientColor=#ffffff;strokeWidth=4;fillColor=none;shadow=1;sketch=0;strokeColor=#B266FF;" vertex="1" parent="1">
          <mxGeometry x="250" y="166" width="40" height="40" as="geometry" />
        </mxCell>
      </root>
    </mxGraphModel>
  </diagram>
</mxfile>
